<svg width="36" height="36" viewBox="0 0 36 36" fill="none" xmlns="http://www.w3.org/2000/svg">
<rect width="36" height="36" rx="18" fill="white"/>
<path d="M17.9973 14.6651C16.1611 14.6651 14.6626 16.1636 14.6626 17.9998C14.6626 19.836 16.1611 21.3345 17.9973 21.3345C19.8335 21.3345 21.332 19.836 21.332 17.9998C21.332 16.1636 19.8335 14.6651 17.9973 14.6651ZM27.9989 17.9998C27.9989 16.6189 28.0114 15.2505 27.9338 13.8721C27.8563 12.271 27.4911 10.8501 26.3203 9.67935C25.147 8.50608 23.7286 8.14334 22.1275 8.06579C20.7466 7.98824 19.3782 8.00074 17.9998 8.00074C16.6189 8.00074 15.2505 7.98824 13.8721 8.06579C12.271 8.14334 10.8501 8.50858 9.67935 9.67935C8.50608 10.8526 8.14334 12.271 8.06579 13.8721C7.98824 15.253 8.00074 16.6214 8.00074 17.9998C8.00074 19.3782 7.98824 20.7491 8.06579 22.1275C8.14334 23.7286 8.50858 25.1495 9.67935 26.3203C10.8526 27.4935 12.271 27.8563 13.8721 27.9338C15.253 28.0114 16.6214 27.9989 17.9998 27.9989C19.3807 27.9989 20.7491 28.0114 22.1275 27.9338C23.7286 27.8563 25.1495 27.491 26.3203 26.3203C27.4936 25.147 27.8563 23.7286 27.9338 22.1275C28.0139 20.7491 27.9989 19.3807 27.9989 17.9998ZM17.9973 23.1307C15.1579 23.1307 12.8664 20.8392 12.8664 17.9998C12.8664 15.1604 15.1579 12.8689 17.9973 12.8689C20.8367 12.8689 23.1282 15.1604 23.1282 17.9998C23.1282 20.8392 20.8367 23.1307 17.9973 23.1307ZM23.3383 13.8571C22.6754 13.8571 22.14 13.3217 22.14 12.6588C22.14 11.9959 22.6754 11.4605 23.3383 11.4605C24.0013 11.4605 24.5366 11.9959 24.5366 12.6588C24.5368 12.8162 24.5059 12.9721 24.4458 13.1176C24.3856 13.2631 24.2974 13.3953 24.1861 13.5066C24.0748 13.6179 23.9426 13.7061 23.7971 13.7663C23.6516 13.8264 23.4957 13.8573 23.3383 13.8571Z" fill="#FF6666"/>
</svg>
