<svg width="196" height="89" viewBox="0 0 196 89" fill="none" xmlns="http://www.w3.org/2000/svg">
<path d="M0 4.45869C0 4.45869 24.5 -4.13734 24.5 4.45869C24.5 13.0547 49 4.45869 49 4.45869C49 4.45869 73.5 -4.85695 73.5 4.45869C73.5 13.7743 98 4.45869 98 4.45869C98 4.45869 122.5 -5.574 122.5 4.45869C122.5 14.4914 147 4.45869 147 4.45869C147 4.45869 171.5 -3.42464 171.5 4.45869C171.5 12.342 196 4.45869 196 4.45869V89H0V4.45869Z" fill="url(#paint0_linear_5890_287)"/>
<defs>
<linearGradient id="paint0_linear_5890_287" x1="1.99856e-06" y1="3.74458" x2="173.152" y2="122.357" gradientUnits="userSpaceOnUse">
<stop stop-color="#943DFF"/>
<stop offset="1" stop-color="#FF6666"/>
</linearGradient>
</defs>
</svg>
