<svg width="36" height="36" viewBox="0 0 36 36" fill="none" xmlns="http://www.w3.org/2000/svg">
<g clip-path="url(#clip0_5885_7929)">
<rect width="36" height="36" rx="18" fill="white"/>
<path d="M28 20.261V28H23.7124V20.7797C23.7124 18.9667 23.0934 17.7286 21.541 17.7286C20.3563 17.7286 19.6525 18.5622 19.3417 19.3692C19.2288 19.6577 19.1997 20.0582 19.1997 20.4628V27.9997H14.9118C14.9118 27.9997 14.9694 15.7708 14.9118 14.5049H19.2V16.4173C19.1914 16.4323 19.1793 16.447 19.1716 16.4614H19.2V16.4173C19.7698 15.4997 20.786 14.1881 23.0643 14.1881C25.8851 14.1881 28 16.1168 28 20.261ZM10.4263 8C8.95958 8 8 9.00753 8 10.3313C8 11.6269 8.93176 12.6635 10.37 12.6635H10.3978C11.8933 12.6635 12.8232 11.6269 12.8232 10.3313C12.7947 9.00753 11.8933 8 10.4263 8ZM8.25484 28H12.5412V14.5049H8.25484V28Z" fill="#FF6666"/>
</g>
<defs>
<clipPath id="clip0_5885_7929">
<rect width="36" height="36" rx="18" fill="white"/>
</clipPath>
</defs>
</svg>
